HIERARCHY
ROOT Hips
{
	OFFSET 0.000000 0.000000 0.000000
	CHANNELS 6 Xposition Yposition Zposition Zrotation Yrotation Xrotation 
	JOINT LHipJoint
	{
		OFFSET 0.000000 0.000000 0.000000
		CHANNELS 3 Zrotation Yrotation Xrotation
		JOINT LeftUpLeg
		{
			OFFSET 1.363060 -1.794630 0.839290
			CHANNELS 3 Zrotation Yrotation Xrotation
			JOINT LeftLeg
			{
				OFFSET 2.448110 -6.726130 0.000000
				CHANNELS 3 Zrotation Yrotation Xrotation
				JOINT LeftFoot
				{
					OFFSET 2.562200 -7.039590 0.000000
					CHANNELS 3 Zrotation Yrotation Xrotation
					JOINT LeftToeBase
					{
						OFFSET 0.157640 -0.433110 2.322550
						CHANNELS 3 Zrotation Yrotation Xrotation
						End Site
						{
							OFFSET 0.000000 0.000000 0.000000
						}
					}
				}
			}
		}
	}
	JOINT RHipJoint
	{
		OFFSET 0.000000 0.000000 0.000000
		CHANNELS 3 Zrotation Yrotation Xrotation
		JOINT RightUpLeg
		{
			OFFSET -1.305520 -1.794630 0.839290
			CHANNELS 3 Zrotation Yrotation Xrotation
			JOINT RightLeg
			{
				OFFSET -2.542530 -6.985550 0.000000
				CHANNELS 3 Zrotation Yrotation Xrotation
				JOINT RightFoot
				{
					OFFSET -2.568260 -7.056230 0.000000
					CHANNELS 3 Zrotation Yrotation Xrotation
					JOINT RightToeBase
					{
						OFFSET -0.164730 -0.452590 2.363150
						CHANNELS 3 Zrotation Yrotation Xrotation
						End Site
						{
							OFFSET 0.000000 0.000000 0.000000
						}
					}
				}
			}
		}
	}
}
MOTION
Frames: 30
Frame Time: 0.008333
0.446836 17.139911 1.517773 -38.407736 -76.953871 40.707855 -11.579739 -2.483106 -3.917463 -5.318422 -10.096256 -4.604246 -0.981141 1.382030 20.471581 1.742140 9.528096 -10.562690 -0.531500 0.000000 -33.191500 5.788435 6.384324 3.116801 -7.884489 -7.823637 -84.671072 2.136390 1.569587 -5.610254 -0.407272 -6.358172 10.809463 -3.665800 0.000000 -81.131000
0.454109 17.130564 1.520399 -38.699693 -76.941844 40.783693 -11.591773 -2.394237 -3.703449 -5.249249 -9.966167 -4.984258 -0.980341 1.386526 21.032110 1.724702 9.398658 -10.779297 -0.570600 0.000001 -33.224200 5.860008 6.337742 2.679116 -6.363160 -7.641586 -81.413891 2.181384 1.617690 -8.121221 -0.913219 -6.729139 16.272216 -3.773300 -0.000000 -82.875700
0.461572 17.121242 1.523510 -39.075405 -77.071607 40.926179 -11.616944 -2.339764 -3.633636 -5.264287 -9.828790 -5.031607 -0.991340 1.395031 21.352407 1.718719 9.345792 -10.939929 -0.599900 0.000000 -33.243000 5.979175 6.162896 2.402016 -5.144952 -7.302337 -82.529571 2.319942 0.832426 -1.833987 -0.899496 -6.230438 17.647553 -3.620999 -0.000000 -83.173801
0.468805 17.112866 1.527400 -39.859620 -77.219633 41.282703 -11.645630 -2.280310 -3.591539 -5.246801 -9.555831 -4.767585 -1.002147 1.406444 21.488343 1.709456 9.278038 -11.048185 -0.618400 0.000000 -33.297000 6.046508 6.023684 1.976864 -4.095047 -6.916592 -82.952727 2.323564 0.028700 4.204078 -0.891520 -5.789625 19.636506 -3.489900 0.000001 -81.698600
0.475122 17.106744 1.533302 -41.234683 -77.402563 42.149692 -11.692223 -2.220196 -3.572949 -5.128644 -9.082326 -4.382298 -1.009003 1.417257 21.498072 1.688260 9.141413 -11.113578 -0.625801 0.000000 -33.409200 6.065358 5.904488 1.502758 -3.309897 -6.379717 -82.627789 2.204977 -0.667361 9.501488 -0.910359 -5.479790 21.951040 -3.397900 -0.000000 -78.857500
0.479914 17.103728 1.541611 -43.171302 -77.638684 43.589102 -11.756478 -2.157834 -3.566251 -4.919146 -8.433480 -3.997072 -1.010654 1.422274 21.405368 1.656851 8.948216 -11.134132 -0.622400 0.000000 -33.564199 6.056731 5.783485 1.046599 -2.656759 -5.667201 -81.799471 2.035916 -1.223263 14.044880 -0.924906 -5.089273 24.189023 -3.222800 -0.000000 -75.575000
0.482436 17.104250 1.551812 -45.513697 -77.927052 45.504355 -11.831826 -2.089314 -3.554224 -4.660475 -7.677864 -3.684562 -1.007471 1.417287 21.227634 1.620085 8.729976 -11.107729 -0.609700 0.000000 -33.731200 6.045010 5.646254 0.644832 -2.023344 -4.818629 -80.730694 1.864037 -1.663435 18.008467 -0.910758 -4.470953 26.069157 -2.874799 0.000000 -72.813400
0.482091 17.108332 1.562747 -48.050740 -78.253112 47.713284 -11.907888 -2.011596 -3.521910 -4.404983 -6.898904 -3.468597 -1.000541 1.400022 20.976121 1.583944 8.524561 -11.033114 -0.589800 -0.000001 -33.884100 6.046942 5.489871 0.307826 -1.358965 -3.904120 -79.600400 1.703229 -2.026296 21.600063 -0.861568 -3.591207 27.466020 -2.332800 0.000000 -71.242299
0.480355 17.115238 1.575418 -50.825925 -78.587752 50.204287 -11.996026 -1.927873 -3.480863 -4.136852 -6.088169 -3.270930 -0.989899 1.374808 20.631306 1.545722 8.314718 -10.907360 -0.561800 0.000001 -34.055500 6.055973 5.317121 -0.005029 -0.573942 -2.985298 -78.417122 1.556982 -2.343284 25.000598 -0.777919 -2.459858 28.341234 -1.608800 0.000000 -70.965200
0.474628 17.124779 1.585748 -53.264862 -78.908562 52.461655 -12.061761 -1.831185 -3.393586 -3.958879 -5.417805 -3.167191 -0.978567 1.337445 20.251953 1.516933 8.170452 -10.746966 -0.532000 -0.000000 -34.161800 6.095533 5.141253 -0.264180 0.228625 -2.180381 -77.319584 1.408428 -2.635135 28.334488 -0.674688 -1.165566 28.756491 -0.773300 -0.000000 -71.946900
0.466644 17.135659 1.595073 -55.423449 -79.192386 54.457428 -12.118936 -1.726595 -3.282213 -3.832562 -4.852710 -3.040330 -0.966779 1.295118 19.809925 1.492215 8.056975 -10.550992 -0.498599 0.000000 -34.264300 6.153695 4.970570 -0.522689 1.107955 -1.541082 -76.197176 1.256600 -2.907838 31.651076 -0.563271 0.215724 28.784174 0.111200 -0.000000 -73.841500
0.455383 17.147266 1.600576 -56.901727 -79.440328 55.813590 -12.142125 -1.611129 -3.132182 -3.821153 -4.490369 -2.917702 -0.958167 1.247689 19.344534 1.478637 8.016424 -10.336244 -0.465300 0.000000 -34.309600 6.245519 4.818125 -0.767779 1.962983 -1.126545 -75.077280 1.091659 -3.161323 34.947880 -0.462604 1.557424 28.540366 0.954700 0.000000 -76.195800
0.441243 17.158643 1.602150 -57.638317 -79.652073 56.446516 -12.131887 -1.487135 -2.951896 -3.915509 -4.324085 -2.772250 -0.954418 1.198567 18.865070 1.474403 8.035486 -10.112890 -0.432500 0.000001 -34.314700 6.369770 4.686487 -1.009901 2.769704 -0.944899 -73.908996 0.914746 -3.390389 38.174494 -0.387248 2.740133 28.136182 1.680900 0.000000 -78.569900
0.424506 17.169141 1.599593 -57.606314 -79.832078 56.326575 -12.087957 -1.357364 -2.746654 -4.109078 -4.341554 -2.611900 -0.957013 1.149370 18.391996 1.478170 8.103641 -9.893237 -0.401000 -0.000000 -34.285299 6.525128 4.573168 -1.245172 3.491887 -0.975240 -72.674256 0.728614 -3.590421 41.265139 -0.348594 3.648757 27.669976 2.226700 0.000001 -80.576800
0.405188 17.178388 1.593230 -56.879803 -79.982523 55.536292 -12.016809 -1.225171 -2.522308 -4.378637 -4.502856 -2.463083 -0.966476 1.100838 17.950934 1.486381 8.195765 -9.691134 -0.371899 0.000000 -34.232300 6.705316 4.469712 -1.464887 4.111848 -1.169601 -71.371395 0.538160 -3.759514 44.159456 -0.352086 4.192523 27.206980 2.549800 -0.000000 -81.929400
0.383644 17.186140 1.583790 -55.610790 -80.106518 54.232926 -11.927331 -1.094202 -2.286116 -4.696212 -4.754854 -2.353241 -0.982462 1.053159 17.561630 1.495134 8.285400 -9.516366 -0.346200 -0.000000 -34.169300 6.901816 4.367100 -1.660652 4.627686 -1.467830 -70.009602 0.348115 -3.898382 46.818391 -0.397837 4.318662 26.772511 2.631700 -0.000000 -82.500000
0.359998 17.192408 1.571450 -53.930459 -80.219204 52.555964 -11.820378 -0.965992 -2.043863 -5.059209 -5.065730 -2.289419 -1.004721 1.004891 17.217825 1.504607 8.374105 -9.367253 -0.323800 0.000000 -34.102200 7.110380 4.261100 -1.825128 5.032430 -1.814111 -68.611096 0.160930 -4.011050 49.239495 -0.481361 4.028240 26.351268 2.481600 -0.000001 -82.261600
0.334655 17.197273 1.557844 -52.107740 -80.318182 50.774882 -11.716001 -0.843271 -1.803889 -5.411239 -5.351230 -2.307737 -1.031351 0.957260 16.945480 1.506892 8.409239 -9.255704 -0.306400 -0.000000 -34.050800 7.317404 4.142276 -1.954997 5.367980 -2.146851 -67.188075 -0.019310 -4.100301 51.423533 -0.595678 3.344997 25.912140 2.117900 0.000000 -81.358499
0.307536 17.201014 1.542772 -50.222240 -80.427626 48.973454 -11.608196 -0.724897 -1.569407 -5.770532 -5.605941 -2.390846 -1.062064 0.908210 16.714580 1.505683 8.416783 -9.168311 -0.292400 -0.000000 -34.010100 7.524301 4.013021 -2.047539 5.628535 -2.431733 -65.765007 -0.193194 -4.171947 53.408625 -0.732518 2.349633 25.412364 1.590700 0.000000 -79.988400
0.279217 17.203794 1.527587 -48.490503 -80.549891 47.357798 -11.511962 -0.611738 -1.348238 -6.095529 -5.770290 -2.546371 -1.095095 0.859489 16.532581 1.495675 8.361903 -9.108712 -0.282500 -0.000000 -33.995500 7.722662 3.869155 -2.106636 5.857206 -2.634930 -64.339948 -0.358977 -4.228341 55.216466 -0.883287 1.126759 24.823168 0.951600 0.000000 -78.397400
0.249648 17.205906 1.511916 -46.911974 -80.703349 45.925251 -11.419707 -0.502300 -1.140417 -6.409301 -5.860655 -2.748883 -1.130316 0.809670 16.369209 1.481487 8.276736 -9.062555 -0.274700 -0.000000 -33.995100 7.916704 3.714724 -2.133454 6.047348 -2.748873 -62.924421 -0.517690 -4.274084 56.883337 -1.039458 -0.213022 24.129374 0.267600 0.000001 -76.820000
0.219186 17.207578 1.496595 -45.593673 -80.887353 44.771145 -11.339749 -0.396581 -0.950741 -6.689734 -5.853307 -2.986536 -1.166549 0.760502 16.222460 1.460902 8.146843 -9.029039 -0.268601 0.000000 -34.016600 8.102831 3.547785 -2.135552 6.227927 -2.769830 -61.501645 -0.667993 -4.310533 58.421406 -1.192619 -1.573685 23.333580 -0.404400 0.000000 -75.411899
0.188008 17.208985 1.481262 -44.479112 -81.107351 43.832637 -11.265862 -0.293860 -0.776590 -6.956876 -5.779569 -3.235857 -1.203625 0.711479 16.072354 1.438224 8.002076 -8.997667 -0.262900 0.000000 -34.047400 8.284788 3.371260 -2.116801 6.390993 -2.712314 -60.068583 -0.809452 -4.340221 59.840203 -1.334908 -2.861593 22.451472 -1.011700 0.000000 -74.293400
0.156250 17.210275 1.466071 -43.545427 -81.358768 43.080589 -11.198227 -0.193958 -0.616908 -7.212455 -5.656222 -3.481375 -1.240975 0.663401 15.913745 1.414916 7.852554 -8.965349 -0.256900 -0.000000 -34.083000 8.462567 3.185238 -2.083461 6.541372 -2.594694 -58.611011 -0.940163 -4.364064 61.131049 -1.459054 -4.004773 21.504650 -1.518000 0.000000 -73.484300
0.124214 17.211525 1.450963 -42.733428 -81.635065 42.450226 -11.135057 -0.096987 -0.468570 -7.463606 -5.511211 -3.711151 -1.278077 0.616783 15.743193 1.393380 7.714717 -8.929463 -0.250400 -0.000001 -34.116200 8.636403 2.990555 -2.040761 6.676490 -2.440600 -57.118909 -1.057781 -4.382545 62.275182 -1.559147 -4.951711 20.514956 -1.902300 -0.000000 -72.972200
0.091986 17.212785 1.435796 -41.957422 -81.928670 41.855905 -11.073485 -0.002924 -0.326714 -7.719782 -5.377090 -3.918772 -1.314460 0.571700 15.559310 1.376320 7.606739 -8.888634 -0.243300 -0.000000 -34.138300 8.806260 2.788192 -1.992305 6.790088 -2.274391 -55.589000 -1.159721 -4.395979 63.248425 -1.630963 -5.671853 19.498858 -2.157500 -0.000000 -72.695800
0.059796 17.214128 1.420823 -41.187631 -82.227475 41.266991 -11.015579 0.087865 -0.188570 -7.974883 -5.267084 -4.108809 -1.349332 0.529100 15.373017 1.363814 7.528494 -8.846887 -0.236200 -0.000000 -34.148701 8.968739 2.577870 -1.941794 6.887727 -2.115351 -54.018280 -1.242899 -4.403521 64.021384 -1.672627 -6.160233 18.465883 -2.291099 0.000000 -72.567900
0.027854 17.215508 1.405823 -40.327319 -82.525522 40.589614 -10.957385 0.175240 -0.048338 -8.239116 -5.210285 -4.284942 -1.382398 0.488378 15.185085 1.358358 7.496470 -8.804246 -0.229001 -0.000000 -34.139700 9.123236 2.362050 -1.889832 6.960254 -1.982048 -52.420166 -1.305244 -4.405290 64.574650 -1.684643 -6.427662 17.417060 -2.317800 -0.000000 -72.505900
-0.003930 17.217052 1.390906 -39.348789 -82.814202 39.802171 -10.899791 0.259322 0.097368 -8.507366 -5.213872 -4.458159 -1.413064 0.449566 15.004187 1.359814 7.508820 -8.764052 -0.222300 0.000000 -34.111900 9.266429 2.141712 -1.837039 7.012464 -1.885121 -50.806667 -1.344846 -4.400555 64.892338 -1.669926 -6.504998 16.350577 -2.260600 0.000000 -72.432300
-0.035244 17.218712 1.376468 -38.300760 -83.084735 38.952007 -10.847056 0.339778 0.248237 -8.763091 -5.264271 -4.642044 -1.440777 0.413394 14.843619 1.365735 7.547911 -8.732222 -0.216700 0.000000 -34.072901 9.393596 1.917617 -1.784678 7.059487 -1.828915 -49.187655 -1.360355 -4.388034 64.966347 -1.633474 -6.437641 15.264683 -2.146500 -0.000001 -72.287500
